<svg width="724" height="684" viewBox="0 0 724 684" fill="none" xmlns="http://www.w3.org/2000/svg">
<g clip-path="url(#clip0_171_997)">
<path d="M172.002 55.1875C208 55.2002 243.498 55.2054 278.995 55.2316C287.841 55.2381 288.021 55.432 288.021 64.126C288.025 140.622 288.017 217.118 288.023 293.613C288.027 339.357 330.371 372.409 374.355 360.497C381.887 358.457 389.568 354.775 395.628 349.916C412.52 336.369 422.77 319.167 422.363 296.436C421.873 269.135 422.188 241.819 422.276 214.509C422.397 176.867 422.667 139.225 422.799 101.582C422.846 88.2615 422.901 74.9327 422.484 61.6222C422.326 56.5795 424.291 55.1952 428.842 55.2159C448.673 55.306 468.506 55.243 488.338 55.2391C509.003 55.235 529.669 55.2225 550.334 55.239C558.842 55.2458 559.429 55.6072 559.581 64.2416C559.798 76.5664 559.633 88.8983 559.609 101.227C559.575 118.71 559.521 136.193 559.474 153.677C559.41 176.991 559.322 200.305 559.286 223.62C559.258 242.108 558.648 260.624 559.433 279.079C561.131 319.04 554.581 357.017 535.088 392.375C512.654 433.067 479.972 462.495 437.875 481.78C413.381 493.002 387.441 498.422 360.77 498.608C305.294 498.997 256.435 481.274 216.029 442.374C183.526 411.081 163.235 373.227 155.684 328.735C154.158 319.742 153.338 310.518 153.317 301.398C153.136 222.569 153.211 143.74 153.215 64.9111C153.215 63.2451 153.261 61.5789 153.298 59.9131C153.365 56.848 155 55.3375 158.005 55.296C162.504 55.2338 167.003 55.2214 172.002 55.1875ZM468.097 111.543C468.101 171.705 468.025 231.867 468.161 292.029C468.2 309.148 464.763 325.359 457.893 341.02C440.345 381.022 395.607 409.026 352.127 406.881C319.264 405.259 291.839 392.194 270.709 366.916C251.841 344.344 244.019 317.725 244 288.612C243.963 228.283 243.996 167.953 243.983 107.624C243.982 99.9993 243.355 99.2938 236.311 99.2488C226.146 99.184 215.979 99.2097 205.814 99.2377C197.318 99.261 196.999 99.5729 196.997 107.893C196.991 142.558 197.003 177.222 197.008 211.886C197.009 218.531 197.008 225.176 197.008 231.821C197.343 231.821 197.678 231.821 198.013 231.821C198.013 190.821 198.013 149.822 198.013 108.822C199.123 110.083 199.296 111.37 199.298 112.656C199.328 142.486 199.89 172.329 199.189 202.142C198.563 228.804 201.407 255.483 197.37 282.184C195.631 293.683 196.6 305.915 198.245 317.544C203.705 356.146 221.287 388.594 250.765 414.195C290.04 448.303 335.75 460.097 386.671 451.219C415.702 446.159 441.403 433.399 463.253 413.516C495.96 383.753 514.717 347.322 515.061 302.414C515.18 286.916 515.091 271.416 515.094 255.917C515.101 206.754 515.114 157.591 515.104 108.427C515.103 99.6206 514.597 99.2045 505.691 99.2461C496.862 99.2873 488.032 99.1993 479.203 99.2667C468.352 99.3494 468.122 99.6281 468.097 111.543ZM197.654 247.994C197.654 245.458 197.654 242.922 197.654 240.386C197.519 240.398 197.385 240.409 197.25 240.421C197.25 244.175 197.25 247.93 197.25 251.685C197.386 251.68 197.522 251.675 197.658 251.67C197.658 250.695 197.658 249.72 197.654 247.994ZM197.019 267.737C197.183 268.052 197.347 268.368 197.51 268.683C197.539 268.523 197.592 268.364 197.592 268.204C197.597 265.552 197.595 262.901 197.595 260.249C197.398 260.255 197.201 260.261 197.004 260.267C197.004 262.566 197.004 264.865 197.019 267.737Z" fill="#202021"/>
<path d="M182.797 590.201C180.299 586.489 178.006 583.073 175.714 579.657C175.291 579.741 174.868 579.826 174.445 579.911C174.298 581.763 174.027 583.616 174.022 585.469C173.982 599.292 174.033 613.117 173.972 626.94C173.945 633.096 173.118 633.875 167.047 633.978C163.551 634.037 160.046 633.85 156.556 634.017C151.901 634.238 149.899 632.265 149.971 627.537C150.127 617.379 150.004 607.218 150.003 597.058C150.002 579.903 149.98 562.748 150.021 545.593C150.037 538.778 150.753 537.94 157.426 538.043C176.275 538.335 171.857 535.192 182.564 551.766C191.058 564.912 199.741 577.936 208.365 590.997C209.062 592.052 209.958 592.976 211.611 595.004C211.79 592.063 211.983 590.34 211.986 588.617C212.012 574.794 211.991 560.97 212.007 547.146C212.017 538.236 212.247 538.028 221.372 538.003C222.871 537.999 224.37 538.001 225.869 538.003C235.98 538.015 235.985 538.016 235.995 547.886C236.004 556.047 235.998 564.208 235.997 572.37C235.997 590.191 236.014 608.012 235.985 625.833C235.973 633.464 235.44 634.072 227.652 633.971C208.366 633.721 213.642 636.575 202.765 620.544C196.035 610.625 189.58 600.519 182.797 590.201Z" fill="#191919"/>
<path d="M656.292 623.306C647.517 630.281 637.816 633.822 626.986 633.96C615.502 634.106 604.013 633.885 592.529 634.032C587.86 634.092 585.955 632.222 585.972 627.518C586.07 599.886 586.036 572.253 585.998 544.621C585.992 540.839 586.779 537.939 591.397 538.051C605.191 538.384 619.057 537.939 632.762 539.213C654.079 541.196 669.798 558.134 672.089 579.404C673.939 596.582 669.617 611.319 656.292 623.306ZM609.998 601.462C610.01 613.216 610.01 613.216 621.931 613.013C622.097 613.011 622.264 613.004 622.43 613.006C633.352 613.162 641.859 608.721 645.744 598.409C649.958 587.222 649.416 575.998 640.944 566.572C634.436 559.331 625.501 558.948 616.499 558.95C611.809 558.951 609.908 560.825 609.966 565.509C610.111 577.162 610.004 588.819 609.998 601.462Z" fill="#191919"/>
<path d="M66.9981 589.973C67.0114 592.799 66.9596 595.133 67.0493 597.461C67.4298 607.334 73.1227 612.899 82.8361 612.95C92.7541 613.001 98.8146 607.3 98.9228 597.218C99.1067 580.066 98.972 562.911 99.0184 545.758C99.0375 538.682 99.6822 538.069 106.76 538.017C110.589 537.989 114.42 538.032 118.249 538.097C121.277 538.149 122.905 539.758 122.902 542.776C122.878 562.924 123.676 583.122 122.504 603.205C121.505 620.343 106.613 633.839 89.0743 634.663C81.103 635.038 72.6498 634.266 65.0725 631.905C51.8228 627.777 43.2407 614.906 43.083 600.977C42.8699 582.16 43.0931 563.339 42.9711 544.521C42.9407 539.842 44.7995 537.767 49.5011 537.986C53.157 538.157 56.8335 538.157 60.4893 537.987C65.1827 537.768 67.0696 539.826 67.0297 544.513C66.902 559.501 66.9921 574.49 66.9981 589.973Z" fill="#191919"/>
<path d="M521 634C516.172 633.995 511.838 633.847 507.517 634.022C502.837 634.212 500.906 632.213 500.965 627.511C501.111 615.859 500.999 604.204 500.998 592.551C500.997 576.901 500.967 561.252 501.024 545.602C501.048 538.972 501.955 538.056 508.546 538.031C523.696 537.975 538.846 537.975 553.996 538.033C560.095 538.056 560.846 538.906 560.984 545.015C561.275 557.985 561.275 557.98 548.469 557.988C542.809 557.991 537.148 558.053 531.488 558.02C527.741 557.998 526.216 559.809 525.998 563.516C525.289 575.524 525.649 575.995 537.514 576.008C542.341 576.014 547.169 576.042 551.996 576.077C555.26 576.1 556.862 577.775 556.93 581.028C557.255 596.677 557.445 594.923 544.463 594.993C540.634 595.014 536.805 594.986 532.976 595.018C531.814 595.028 530.475 594.812 529.522 595.298C522.932 598.652 526.938 604.72 526.143 609.538C525.598 612.844 527.43 614.922 531.037 614.934C538.861 614.962 546.689 615.123 554.509 614.969C559.217 614.877 560.971 616.866 561.048 621.525C561.253 634.001 561.389 633.999 548.97 634C539.814 634.001 530.657 634 521 634Z" fill="#191919"/>
<path d="M440.213 571.043C444.497 561.626 448.735 552.58 452.756 543.438C454.444 539.601 456.969 537.78 461.239 537.968C466.226 538.186 471.232 537.933 476.226 538.049C481.259 538.165 481.9 539.192 479.573 543.775C472.565 557.583 466.145 571.757 458.154 584.978C451.033 596.759 448.014 608.789 448.851 622.412C449.56 633.962 448.995 633.997 437.586 634C425.004 634.003 423.99 633.899 425.252 621.602C426.939 605.152 419.923 591.919 412.62 578.416C406.364 566.849 400.316 555.168 394.29 543.479C392.101 539.233 392.781 538.182 397.597 538.056C402.59 537.926 407.603 538.241 412.582 537.949C417.495 537.661 420.215 539.814 422.11 544.204C426.265 553.83 430.753 563.313 435.131 572.843C435.535 573.723 436.126 574.517 437.162 576.228C438.366 574.226 439.223 572.8 440.213 571.043Z" fill="#191919"/>
<path d="M334.001 538.002C346.325 538.006 358.15 537.966 369.974 538.031C376.09 538.065 376.845 538.903 376.984 544.999C377.28 557.984 377.28 557.981 364.476 557.986C357.648 557.989 350.819 558.085 343.992 557.985C339.768 557.923 338.119 559.825 337.967 564.013C337.494 577.004 337.392 576.995 350.517 577.004C354.347 577.007 358.177 577.04 362.007 577.073C365.275 577.1 366.87 578.778 366.937 582.03C367.258 597.683 367.454 595.92 354.46 595.997C350.963 596.018 347.463 596.108 343.969 596.003C339.726 595.876 337.947 597.856 337.994 602.044C338.087 610.37 338.048 618.699 337.97 627.025C337.913 633.111 337.095 633.882 330.958 633.979C327.462 634.034 323.957 633.847 320.468 634.015C315.738 634.244 313.921 632.102 313.97 627.449C314.106 614.46 314.004 601.469 314.003 588.478C314.003 573.989 313.97 559.499 314.032 545.01C314.058 538.901 314.901 538.118 321.01 538.025C325.173 537.961 329.337 538.006 334.001 538.002Z" fill="#191919"/>
<path d="M267.454 538.117C272.397 538.066 276.897 538.091 281.396 538.032C285.086 537.984 286.963 539.63 286.961 543.425C286.941 571.758 286.942 600.091 286.969 628.424C286.973 632.128 285.332 634.003 281.551 633.964C277.551 633.924 273.545 633.84 269.553 634.018C264.888 634.227 262.905 632.252 262.971 627.526C263.123 616.695 263.004 605.86 263.004 595.027C263.003 578.36 262.995 561.694 263.027 545.027C263.033 542.022 262.778 538.761 267.454 538.117Z" fill="#191919"/>
</g>
<defs>
<clipPath id="clip0_171_997">
<rect width="724" height="684" fill="white"/>
</clipPath>
</defs>
</svg>
